<?xml version="1.0" encoding="UTF-8"?>
<svg width="24px" height="21px" viewBox="0 0 24 21" version="1.1" xmlns="http://www.w3.org/2000/svg" xmlns:xlink="http://www.w3.org/1999/xlink">
    <!-- Generator: Sketch 49.1 (51147) - http://www.bohemiancoding.com/sketch -->
    <title>noun_186700_cc</title>
    <desc>Created with Sketch.</desc>
    <defs></defs>
    <g id="Page-1" stroke="none" stroke-width="1" fill="none" fill-rule="evenodd">
        <g id="noun_186700_cc" fill="#FFFFFF" fill-rule="nonzero">
            <g id="Group">
                <g id="Shape">
                    <path d="M6.4865738,16.9682423 C9.1249265,19.2956193 11.5559286,20.8325452 11.658129,20.8967831 C11.7674838,20.9655943 11.8926849,21 12.0179172,21 C12.1434321,21 12.2689468,20.9654127 12.3784899,20.8962683 C12.4806276,20.8318486 14.9100294,19.2911065 17.5438635,16.9586112 C19.098741,15.5815987 20.3979134,14.215338 21.4053579,12.8976571 C22.6891234,11.2186263 23.5058168,9.60568087 23.8328457,8.1035846 C23.943738,7.61427369 24,7.11039485 24,6.60597081 C24,6.56160084 23.9994666,6.51780635 23.9983683,6.47376965 C23.9651069,4.74476585 23.2833104,3.12273443 22.0784624,1.90633204 C20.8608433,0.677027582 19.2471935,0 17.5348264,0 C16.1268641,0 14.7884997,0.454329952 13.6644519,1.31392538 C12.9880525,1.83116062 12.4262483,2.465484 11.999341,3.18779021 C11.5723397,2.4659989 11.0106609,1.83219033 10.3345127,1.31534883 C9.21068447,0.4562985 7.87266519,0.00227153365 6.46514222,0.00227153365 C4.75302613,0.00227153365 3.13959595,0.679056808 1.92207102,1.90805838 C0.717348472,3.12409731 0.0354265153,4.74591671 0.00175724017,6.47470849 C0.000659004367,6.51874529 0,6.56344833 0,6.60800003 C0,7.12160087 0.0583016594,7.63402056 0.173304524,8.13111519 C0.506012961,9.63060676 1.32778973,11.2404024 2.61585411,12.9158897 C3.62678169,14.2309356 4.92909202,15.5943494 6.4865738,16.9682423 Z M1.31931752,6.50399572 C1.31934886,6.50266302 1.3193803,6.50136072 1.3193803,6.50002813 C1.34646005,5.09076043 1.89875665,3.77217094 2.87463427,2.78712818 C3.84109824,1.8115652 5.11626592,1.27431039 6.46514222,1.27431039 C7.57262211,1.27431039 8.62769953,1.63332831 9.51631305,2.31253646 C10.3838713,2.97566254 11.0414748,3.92330127 11.3680957,4.98088046 C11.4513748,5.25049219 11.7082408,5.4352407 11.9997176,5.43521041 C12.2911943,5.43518012 12.5479977,5.25028017 12.6311512,4.98066844 C12.9575524,3.92263493 13.6151559,2.97451158 14.4828712,2.31096156 C15.3716415,1.63129908 16.4270013,1.27203896 17.5348264,1.27203896 C18.8839223,1.27203896 20.1592469,1.8094754 21.1258364,2.78534126 C22.1017768,3.7706869 22.6540106,5.08945813 22.6807453,6.49884698 C22.6807766,6.50002813 22.6807766,6.50120928 22.680808,6.50239053 C22.6816553,6.53688697 22.6820945,6.57123206 22.6820945,6.60597081 C22.6820945,7.01995885 22.6359364,7.4331596 22.5448441,7.83406383 C22.5444048,7.8359719 22.5439968,7.8378194 22.5435889,7.83969718 C21.8851069,10.869603 18.9845539,13.9543278 16.6672367,16.0086101 C14.6903157,17.7611163 12.7884841,19.0808264 12.0173211,19.5956993 C11.2453736,19.081947 9.34169052,17.7653261 7.36131794,16.0166057 C5.0396705,13.9665939 2.13152384,10.887775 1.46143169,7.86216981 C1.46099235,7.86023145 1.46052168,7.85823251 1.46008234,7.85629425 C1.36575804,7.44927205 1.3179055,7.02928719 1.3179055,6.60800003 C1.3179055,6.5732309 1.31843895,6.53831042 1.31931752,6.50399572 Z"></path>
                </g>
            </g>
        </g>
    </g>
</svg>